<svg xmlns="http://www.w3.org/2000/svg" xmlns:xlink="http://www.w3.org/1999/xlink" version="1.1" x="0px" y="0px" viewBox="0 0 64 80" style="enable-background:new 0 0 64 64;" xml:space="preserve"><g><g><g><path d="M28.57,48.75c-0.01,0-0.02,0-0.02,0c-0.27-0.01-0.48-0.24-0.47-0.51c0.03-0.72-0.01-2.55-1.08-4.08     c-0.96-1.36-1.63-2.89-2.1-4.07l-1.14-2.75c-0.62-1.34-1.56-2.84-2.51-3.99c-0.83-1.01-0.75-2.49,0.19-3.36     c1-0.94,2.76-0.8,3.59,0.31l1.96,2.58V19.78c0-1.39,1.13-2.52,2.52-2.52c0.67,0,1.3,0.26,1.78,0.73     c0.48,0.49,0.74,1.13,0.74,1.79v12.08c0,0.27-0.22,0.49-0.49,0.49s-0.49-0.22-0.49-0.49V19.78c0-0.41-0.16-0.8-0.45-1.09     c-0.29-0.28-0.68-0.44-1.09-0.44c-0.85,0-1.54,0.69-1.54,1.54v14.56c0,0.21-0.14,0.4-0.34,0.47c-0.2,0.07-0.42,0-0.55-0.17     l-2.84-3.75c-0.5-0.66-1.54-0.75-2.14-0.19c-0.57,0.53-0.61,1.4-0.1,2.02c1,1.21,1.99,2.79,2.65,4.22l1.15,2.77     c0.46,1.14,1.1,2.6,2,3.88c1.2,1.71,1.3,3.67,1.26,4.69C29.05,48.54,28.83,48.75,28.57,48.75z"/></g><g><path d="M39.44,48.75c-0.27,0-0.49-0.22-0.49-0.49v-0.81c0-1.55,0.47-3.03,1.35-4.28c0.67-0.93,1.21-1.96,1.63-3.05     c0.27-0.72,0.41-1.49,0.41-2.3v-6.28c0-0.69-0.56-1.26-1.25-1.26c-0.7,0-1.26,0.56-1.26,1.26c0,0.27-0.22,0.49-0.49,0.49     c-0.27,0-0.49-0.22-0.49-0.49c0-1.24,1-2.24,2.23-2.24c1.24,0,2.24,1,2.24,2.24v6.28c0,0.93-0.16,1.82-0.48,2.65     c-0.44,1.17-1.03,2.26-1.75,3.27c-0.76,1.08-1.17,2.36-1.17,3.71v0.81C39.94,48.53,39.72,48.75,39.44,48.75z"/></g><g><path d="M39.35,32.47c-0.27,0-0.49-0.22-0.49-0.49v-2.21c0-0.39-0.16-0.77-0.44-1.06c-0.28-0.27-0.66-0.43-1.05-0.43     c-0.83,0-1.5,0.67-1.5,1.49c0,0.27-0.22,0.49-0.49,0.49c-0.27,0-0.49-0.22-0.49-0.49c0-1.37,1.12-2.48,2.49-2.48     c0.65,0,1.27,0.26,1.75,0.72c0.47,0.49,0.73,1.11,0.73,1.76v2.21C39.84,32.25,39.62,32.47,39.35,32.47z"/></g><g><path d="M35.37,32.47c-0.27,0-0.49-0.22-0.49-0.49v-2.21c0-0.86-0.64-1.49-1.42-1.49s-1.42,0.64-1.42,1.42v1.02     c0,0.27-0.22,0.49-0.49,0.49s-0.49-0.22-0.49-0.49v-1.02c0-1.33,1.08-2.41,2.41-2.41c1.33,0,2.41,1.08,2.41,2.41v2.29     C35.86,32.25,35.64,32.47,35.37,32.47z"/></g><g><path d="M40.95,52.92H26.59c-0.27,0-0.49-0.22-0.49-0.49v-4.17c0-0.27,0.22-0.49,0.49-0.49h14.35c0.27,0,0.49,0.22,0.49,0.49     v4.17C41.44,52.7,41.22,52.92,40.95,52.92z M27.09,51.93h13.37v-3.19H27.09V51.93z"/></g><g><path d="M25.57,25.47c-0.11,0-0.21-0.03-0.3-0.1c-1.72-1.34-2.71-3.36-2.71-5.54c0-3.88,3.16-7.04,7.04-7.04     c3.87,0,7.03,3.16,7.03,7.04c0,2-0.85,3.9-2.34,5.23c-0.2,0.18-0.51,0.16-0.7-0.04c-0.18-0.2-0.16-0.51,0.04-0.7     c1.28-1.14,2.01-2.78,2.01-4.5c0-3.34-2.71-6.05-6.04-6.05c-3.34,0-6.05,2.72-6.05,6.05c0,1.87,0.85,3.61,2.33,4.76     c0.21,0.17,0.25,0.48,0.09,0.69C25.86,25.41,25.72,25.47,25.57,25.47z"/></g><g><path d="M23.3,27.12c-0.12,0-0.24-0.04-0.33-0.13c-1.99-1.83-3.13-4.44-3.13-7.16c0-5.38,4.38-9.76,9.76-9.76     s9.76,4.38,9.76,9.76c0,2.68-1.07,5.18-3.02,7.03c-0.2,0.19-0.51,0.18-0.7-0.02c-0.19-0.2-0.18-0.51,0.02-0.7     c1.75-1.67,2.71-3.91,2.71-6.32c0-4.84-3.94-8.78-8.78-8.78s-8.78,3.94-8.78,8.78c0,2.44,1.02,4.79,2.81,6.43     c0.2,0.18,0.21,0.5,0.03,0.7C23.56,27.07,23.43,27.12,23.3,27.12z"/></g></g><g><g><path d="M46.25,64H17.75c-2.1,0-3.82-1.71-3.82-3.82V3.82c0-2.1,1.71-3.82,3.82-3.82h28.51c2.1,0,3.82,1.71,3.82,3.82v56.37     C50.07,62.29,48.36,64,46.25,64z M17.75,0.98c-1.56,0-2.83,1.27-2.83,2.83v56.37c0,1.56,1.27,2.83,2.83,2.83h28.51     c1.56,0,2.83-1.27,2.83-2.83V3.82c0-1.56-1.27-2.83-2.83-2.83H17.75z"/></g><g><g><path d="M49.58,8.67H14.42c-0.27,0-0.49-0.22-0.49-0.49c0-0.27,0.22-0.49,0.49-0.49h35.15c0.27,0,0.49,0.22,0.49,0.49      C50.07,8.45,49.85,8.67,49.58,8.67z"/></g><g><path d="M49.58,56.32H14.42c-0.27,0-0.49-0.22-0.49-0.49s0.22-0.49,0.49-0.49h35.15c0.27,0,0.49,0.22,0.49,0.49      S49.85,56.32,49.58,56.32z"/></g></g><g><path d="M36.85,4.82h-9.7c-0.27,0-0.49-0.22-0.49-0.49c0-0.27,0.22-0.49,0.49-0.49h9.7c0.27,0,0.49,0.22,0.49,0.49     C37.34,4.6,37.12,4.82,36.85,4.82z"/></g><g><path d="M32,61.73c-1.14,0-2.06-0.92-2.06-2.06c0-1.14,0.92-2.06,2.06-2.06c1.14,0,2.06,0.92,2.06,2.06     C34.06,60.8,33.14,61.73,32,61.73z M32,58.59c-0.59,0-1.08,0.48-1.08,1.08s0.48,1.08,1.08,1.08s1.08-0.48,1.08-1.08     S32.59,58.59,32,58.59z"/></g></g></g><text x="0" y="79" fill="#000000" font-size="5px" font-weight="bold" font-family="'Helvetica Neue', Helvetica, Arial-Unicode, Arial, Sans-serif">Created by Ranksol</text><text x="0" y="84" fill="#000000" font-size="5px" font-weight="bold" font-family="'Helvetica Neue', Helvetica, Arial-Unicode, Arial, Sans-serif">from the Noun Project</text></svg>