<svg xmlns="http://www.w3.org/2000/svg" xmlns:xlink="http://www.w3.org/1999/xlink" version="1.1" x="0px" y="0px" viewBox="0 0 100 125" enable-background="new 0 0 100 100" xml:space="preserve"><g><g><path fill="#000000" d="M50.55,78.672c-0.606,0-1.178-0.371-1.404-0.971c-3.564-9.456-11.185-32.993-12.384-37.435    c-0.837-3.104-1.88-6.966-0.175-9.823c0.887-1.486,2.397-2.489,4.487-2.981c6.512-1.536,8.788,5.04,10.013,8.57    c0.122,0.35,0.235,0.678,0.345,0.976c0.799,2.171,3.547,8.439,5.165,12.096c0.608-0.724,1.417-1.409,2.475-1.822    c1.53-0.597,3.231-0.515,5.076,0.239c0.647-1.577,1.975-2.92,3.673-3.587c1.868-0.734,3.854-0.507,5.615,0.58    c0.691-1.527,2.047-3.311,4.69-3.994c1.678-0.433,3.292-0.218,4.669,0.62c2.895,1.764,3.847,5.626,3.946,6.061    c0.184,0.808-0.321,1.612-1.129,1.796c-0.807,0.188-1.612-0.322-1.796-1.129c-0.196-0.84-1.046-3.235-2.589-4.169    c-0.686-0.415-1.455-0.504-2.351-0.273c-2.849,0.735-3.151,3.815-3.154,3.846c-0.052,0.597-0.455,1.105-1.024,1.293    c-0.569,0.188-1.195,0.019-1.593-0.43c-1.294-1.46-2.781-1.962-4.188-1.409c-1.284,0.504-2.231,1.792-2.203,2.993    c0.013,0.55-0.276,1.063-0.753,1.337s-1.066,0.264-1.534-0.025c-1.717-1.062-3.146-1.384-4.251-0.959    c-1.641,0.63-2.284,2.773-2.29,2.795c-0.177,0.604-0.712,1.037-1.339,1.08c-0.624,0.043-1.215-0.306-1.473-0.88    c-0.214-0.48-5.272-11.806-6.457-15.021c-0.115-0.313-0.236-0.66-0.364-1.029c-1.432-4.128-2.907-7.474-6.491-6.633    c-1.288,0.303-2.138,0.826-2.599,1.598c-1.054,1.766-0.195,4.948,0.495,7.504c1.189,4.403,8.753,27.762,12.295,37.158    c0.292,0.775-0.1,1.641-0.875,1.933C50.905,78.641,50.726,78.672,50.55,78.672z"/></g><g><path fill="#000000" d="M29.025,42.323c-0.408,0-0.813-0.165-1.11-0.49c-0.558-0.612-0.513-1.561,0.1-2.119l2.655-2.417    c0.612-0.558,1.561-0.513,2.119,0.1c0.558,0.612,0.513,1.561-0.1,2.119l-2.655,2.417C29.747,42.194,29.385,42.323,29.025,42.323z"/></g><g><path fill="#000000" d="M31.126,30.925c-0.299,0-0.601-0.089-0.864-0.275l-2.933-2.072c-0.676-0.478-0.837-1.414-0.359-2.091    c0.477-0.677,1.413-0.837,2.091-0.359l2.933,2.072c0.676,0.478,0.837,1.414,0.359,2.091    C32.061,30.705,31.597,30.925,31.126,30.925z"/></g><g><path fill="#000000" d="M26.751,35.679c-0.786,0-1.447-0.612-1.496-1.408c-0.051-0.827,0.578-1.539,1.405-1.589l4.648-0.286    c0.823-0.049,1.539,0.578,1.589,1.405s-0.578,1.539-1.405,1.589l-4.648,0.286C26.814,35.678,26.783,35.679,26.751,35.679z"/></g><g><path fill="#000000" d="M53.359,89.681c-0.159,0-0.321-0.026-0.48-0.08c-5.049-1.708-8.778-5.012-10.785-9.557    c-2.564-5.809-2.171-13.394,1.08-20.809c0.333-0.759,1.219-1.105,1.976-0.772c0.759,0.333,1.104,1.218,0.772,1.976    c-2.915,6.648-3.31,13.352-1.084,18.393c1.682,3.809,4.71,6.475,9.001,7.927c0.785,0.265,1.206,1.117,0.94,1.901    C54.568,89.287,53.984,89.681,53.359,89.681z"/></g><g><g><path fill="#000000" d="M42.122,76.123H19.77c-3.611,0-6.549-2.938-6.549-6.55V16.869c0-3.611,2.938-6.549,6.549-6.549h25.683     c3.611,0,6.549,2.938,6.549,6.549v21.879c0,0.829-0.671,1.5-1.5,1.5s-1.5-0.671-1.5-1.5V16.869c0-1.957-1.592-3.549-3.549-3.549     H19.77c-1.957,0-3.549,1.592-3.549,3.549v52.705c0,1.958,1.592,3.55,3.549,3.55h22.352c0.829,0,1.5,0.671,1.5,1.5     S42.95,76.123,42.122,76.123z"/></g><g><path fill="#000000" d="M32.61,71.146c-2.699,0-4.895-2.196-4.895-4.896s2.196-4.896,4.895-4.896c2.7,0,4.897,2.196,4.897,4.896     S35.311,71.146,32.61,71.146z M32.61,64.354c-1.044,0-1.895,0.85-1.895,1.896s0.85,1.896,1.895,1.896     c1.046,0,1.897-0.85,1.897-1.896S33.656,64.354,32.61,64.354z"/></g><g><g><path fill="#000000" d="M34.331,19.667h-7.998c-0.829,0-1.5-0.671-1.5-1.5s0.671-1.5,1.5-1.5h7.998c0.829,0,1.5,0.671,1.5,1.5      S35.16,19.667,34.331,19.667z"/></g><g><path fill="#000000" d="M38.893,19.667H38.41c-0.829,0-1.5-0.671-1.5-1.5s0.671-1.5,1.5-1.5h0.482c0.829,0,1.5,0.671,1.5,1.5      S39.721,19.667,38.893,19.667z"/></g></g></g></g><text x="0" y="115" fill="#000000" font-size="5px" font-weight="bold" font-family="'Helvetica Neue', Helvetica, Arial-Unicode, Arial, Sans-serif">Created by Jetro Cabau Quirós</text><text x="0" y="120" fill="#000000" font-size="5px" font-weight="bold" font-family="'Helvetica Neue', Helvetica, Arial-Unicode, Arial, Sans-serif">from the Noun Project</text></svg>